<svg width="67" height="55" viewBox="0 0 67 55" fill="none" xmlns="http://www.w3.org/2000/svg">
<g filter="url(#filter0_d)">
<path d="M8.48764 39.2777C8.71752 39.5634 8.83998 39.9212 8.83356 40.2884C8.84529 40.5279 8.8032 40.767 8.71042 40.988C8.61763 41.209 8.47652 41.4062 8.29754 41.565C7.85095 41.9036 7.29769 42.0692 6.73933 42.0312H4V35.6262H6.68323C7.21289 35.5909 7.73833 35.7413 8.16977 36.0518C8.34305 36.1974 8.48026 36.3814 8.57058 36.5894C8.6609 36.7974 8.70185 37.0236 8.69021 37.2502C8.70595 37.6035 8.59543 37.9508 8.37857 38.2295C8.17037 38.484 7.88265 38.6604 7.56206 38.7301C7.92548 38.7967 8.25352 38.9908 8.48764 39.2777ZM5.27461 38.3109H6.42146C6.6821 38.3302 6.94097 38.2547 7.1507 38.0981C7.23681 38.0197 7.3038 37.9226 7.34649 37.814C7.38918 37.7055 7.40643 37.5886 7.39689 37.4723C7.40499 37.3564 7.38738 37.2402 7.34535 37.132C7.30332 37.0238 7.2379 36.9263 7.15381 36.8465C6.93781 36.6855 6.6709 36.6088 6.40276 36.6306H5.27461V38.3109ZM7.26289 40.7671C7.35493 40.6869 7.42729 40.5864 7.47432 40.4735C7.52134 40.3607 7.54178 40.2384 7.53402 40.1163C7.54104 39.9927 7.51967 39.8692 7.47158 39.7553C7.42349 39.6414 7.34995 39.54 7.25666 39.4592C7.03228 39.2922 6.75632 39.2102 6.47755 39.2277H5.27461V40.9892H6.49313C6.7674 41.0051 7.03889 40.9268 7.26289 40.7671Z" fill="#AFB1B8"/>
<path d="M13.9724 42.0312L12.4797 39.5281H11.9187V42.0312H10.6348V35.6263H13.0656C13.6783 35.5833 14.284 35.7782 14.7578 36.1707C15.0976 36.5183 15.3025 36.9764 15.3357 37.4623C15.3688 37.9482 15.228 38.4301 14.9385 38.8209C14.6386 39.1659 14.229 39.3959 13.7792 39.4717L15.3686 42.0312H13.9724ZM11.9187 38.6551H12.969C13.6982 38.6551 14.0628 38.3318 14.0628 37.6851C14.0703 37.5531 14.0503 37.4209 14.0041 37.297C13.958 37.1731 13.8867 37.0602 13.7948 36.9655C13.5644 36.773 13.2676 36.6797 12.969 36.7058H11.9063L11.9187 38.6551Z" fill="#AFB1B8"/>
<path d="M20.9905 40.7421H18.432L17.9801 42.0312H16.6338L18.9836 35.6982H20.4389L22.7794 42.0312H21.4331L20.9905 40.7421ZM20.6477 39.7721L19.7128 37.0687L18.7779 39.7721H20.6477Z" fill="#AFB1B8"/>
<path d="M29.7759 42.0312H28.5013L25.6436 37.6757V42.0312H24.3721V35.6262H25.6436L28.5013 40.0068V35.6262H29.7759V42.0312Z" fill="#AFB1B8"/>
<path d="M37.0497 40.4981C36.7862 40.9817 36.3846 41.375 35.8966 41.6276C35.3418 41.909 34.7261 42.0477 34.1047 42.0313H31.8359V35.6263H34.1047C34.725 35.61 35.3399 35.7453 35.8966 36.0206C36.3845 36.2674 36.7865 36.6569 37.0497 37.1376C37.3121 37.6585 37.4488 38.2341 37.4488 38.8178C37.4488 39.4016 37.3121 39.9772 37.0497 40.4981ZM35.5912 40.3448C35.955 39.9193 36.155 39.377 36.155 38.8163C36.155 38.2555 35.955 37.7133 35.5912 37.2878C35.1515 36.9024 34.5781 36.7067 33.9956 36.7433H33.1106V40.8892H33.9956C34.5781 40.9258 35.1515 40.7302 35.5912 40.3448Z" fill="#AFB1B8"/>
<path d="M21.7886 0C21.7886 0 38.2401 6.236 37.8911 15.2599V30.5229C37.8911 30.5229 21.452 24.2838 21.7948 15.2599L21.7886 0Z" fill="#AFB1B8"/>
<path d="M52.5474 26.9497C55.6544 24.8029 59.2483 23.4731 62.9998 23.0823V18.3044C58.6772 19.9771 55.0101 23.0101 52.5474 26.9497Z" fill="#AFB1B8"/>
<path d="M50.6809 28.389C53.2239 23.2477 57.6326 19.2804 63.0001 17.3031V3.53571C63.0001 3.53571 39.5708 12.4188 40.0663 25.2694V47C40.0663 47 41.1103 46.6026 42.7527 45.8579C42.7527 45.1633 42.7527 44.4624 42.8275 43.7584C43.3124 37.7925 46.1372 32.2642 50.6809 28.389Z" fill="#AFB1B8"/>
<path d="M48.4528 36.4616C48.5758 34.9546 48.8504 33.4638 49.2724 32.0123C46.4432 35.3589 44.7299 39.5116 44.3734 43.8866C44.3391 44.2997 44.3204 44.7127 44.311 45.1382C45.6417 44.4968 47.1906 43.6958 48.8174 42.754C48.4022 40.6841 48.2795 38.5659 48.4528 36.4616Z" fill="#AFB1B8"/>
<path d="M49.3846 36.5399C49.2286 38.4437 49.3261 40.3598 49.6744 42.2377C56.0755 38.3922 63.2682 32.4504 62.9908 25.2694V24.6436C58.4175 25.1574 54.1387 27.1647 50.8119 30.3571C50.033 32.3354 49.5519 34.4192 49.3846 36.5399Z" fill="#AFB1B8"/>
</g>
<defs>
<filter id="filter0_d" x="0" y="0" width="67" height="55" filterUnits="userSpaceOnUse" color-interpolation-filters="sRGB">
<feFlood flood-opacity="0" result="BackgroundImageFix"/>
<feColorMatrix in="SourceAlpha" type="matrix" values="0 0 0 0 0 0 0 0 0 0 0 0 0 0 0 0 0 0 127 0"/>
<feOffset dy="4"/>
<feGaussianBlur stdDeviation="2"/>
<feColorMatrix type="matrix" values="0 0 0 0 0 0 0 0 0 0 0 0 0 0 0 0 0 0 0.25 0"/>
<feBlend mode="normal" in2="BackgroundImageFix" result="effect1_dropShadow"/>
<feBlend mode="normal" in="SourceGraphic" in2="effect1_dropShadow" result="shape"/>
</filter>
</defs>
</svg>
